<svg width="25" height="24" viewBox="0 0 25 24" fill="none" xmlns="http://www.w3.org/2000/svg">
<path d="M5.88589 1.1598C8.69627 0.457033 10.5415 1.33633 11.6651 2.45988C11.7875 2.58226 11.9006 2.7068 12.0051 2.83153C12.1278 2.97802 12.3091 3.06265 12.5002 3.06265C12.6913 3.06265 12.8726 2.97802 12.9953 2.83153C13.0998 2.70679 13.2129 2.58225 13.3353 2.45988C14.4589 1.33629 16.3043 0.457053 19.1153 1.1598C21.9229 1.86173 24.0419 3.97284 24.7491 6.62517C25.461 9.29528 24.7249 12.433 21.9982 15.1597C18.9813 18.1766 16.4061 20.7531 14.7854 22.3748C13.5244 23.6366 11.4827 23.6372 10.2211 22.3759L3.00388 15.1597C0.276081 12.4324 -0.460027 9.29459 0.252171 6.62457C0.959605 3.9724 3.07894 1.86172 5.88589 1.1598Z" fill="#F2F2F2"/>
</svg>
